<svg t="1566639048187" class="icon" viewBox="0 0 1024 1024" version="1.1" xmlns="http://www.w3.org/2000/svg" p-id="5985" width="200" height="200"><path d="M345.6 817.6c-12.8 32-36.8 44.8-60.8 46.4 28.8 1.6 57.6-8 73.6-46.4 6.4-17.6 11.2-33.6 11.2-46.4-4.8-1.6-8-3.2-12.8-3.2 0 12.8-3.2 30.4-11.2 49.6z" fill="#C4AC8C" p-id="5986"></path><path d="M345.6 817.6c8-19.2 11.2-36.8 11.2-49.6-20.8-8-40-16-52.8-22.4l-9.6-4.8c-16 14.4-41.6 35.2-56 40-22.4 8-49.6 40-22.4 62.4 14.4 11.2 41.6 22.4 68.8 20.8 25.6-1.6 48-14.4 60.8-46.4z" fill="#E2CBAA" p-id="5987"></path><path d="M812.8 793.6c-3.2-11.2-6.4-25.6-8-40l-9.6 4.8c0 1.6 0 1.6-1.6 3.2l-1.6 1.6c1.6 11.2 4.8 22.4 8 32 11.2 35.2 27.2 67.2 80 70.4h9.6c-49.6-6.4-65.6-36.8-76.8-72z" fill="#C4AC8C" p-id="5988"></path><path d="M804.8 755.2c1.6 14.4 4.8 28.8 8 40 11.2 33.6 27.2 65.6 76.8 68.8h3.2c52.8 3.2 57.6-59.2 35.2-68.8-11.2-4.8-43.2-25.6-57.6-41.6-3.2-4.8-14.4-12.8-22.4-22.4l-43.2 24z" fill="#E2CBAA" p-id="5989"></path><path d="M217.6 580.8c-14.4-6.4-40-19.2-83.2-44.8-51.2-32-89.6-75.2-70.4-129.6 12.8-41.6 46.4-68.8 80-70.4-41.6-9.6-89.6 16-100.8 56-19.2 56 1.6 115.2 52.8 147.2 59.2 36.8 97.6 49.6 116.8 52.8 0-1.6 1.6-1.6 1.6-3.2s1.6-4.8 3.2-8z" fill="#C4AC8C" p-id="5990"></path><path d="M62.4 406.4c-17.6 54.4 20.8 97.6 70.4 129.6 43.2 27.2 68.8 40 83.2 44.8 6.4-17.6 19.2-54.4 33.6-96-12.8-27.2-33.6-73.6-46.4-102.4-14.4-33.6-36.8-48-62.4-46.4-30.4 1.6-64 28.8-78.4 70.4z m75.2 19.2c-12.8 0-24-11.2-24-24s11.2-24 24-24 24 11.2 24 24-9.6 24-24 24z" fill="#E2CBAA" p-id="5991"></path><path d="M179.2 627.2zM932.8 606.4c-1.6-3.2-4.8-4.8-6.4-8 1.6 3.2 4.8 6.4 6.4 8zM950.4 627.2c0-1.6 0-1.6 0 0 1.6-1.6 0-1.6 0-3.2-1.6 1.6 0 1.6 0 3.2zM206.4 617.6c0 1.6 1.6 1.6 1.6 1.6 9.6 8 44.8 46.4 78.4 72 4.8-8 9.6-20.8 14.4-32l-3.2-1.6c-3.2-1.6-8-4.8-11.2-8-4.8-4.8-8-11.2-11.2-17.6-1.6 0-4.8-1.6-4.8-4.8-11.2-27.2-40-17.6-41.6-16-4.8 1.6-8-1.6-9.6-4.8-1.6-4.8 1.6-8 4.8-9.6 1.6 0 4.8-1.6 6.4-1.6 16-41.6 59.2-192 97.6-233.6 41.6-44.8 126.4-92.8 204.8-99.2 67.2-4.8 204.8-1.6 267.2 36.8-52.8-44.8-206.4-49.6-280-44.8-78.4 4.8-161.6 52.8-204.8 96-22.4 22.4-44.8 80-64 132.8-14.4 41.6-27.2 78.4-33.6 96-1.6 3.2-3.2 6.4-3.2 8 0 1.6-1.6 1.6-1.6 3.2-8 12.8-20.8 25.6-27.2 32 1.6 0 3.2-1.6 4.8-1.6 3.2 0 9.6-1.6 16-3.2zM200 670.4c3.2 4.8 8 9.6 14.4 14.4l-14.4-14.4z" fill="#A88D6C" p-id="5992"></path><path d="M771.2 742.4c-27.2 9.6-57.6 16-89.6 22.4 0 1.6 0 1.6 1.6 3.2 3.2 3.2 3.2 8 1.6 11.2-1.6 1.6-3.2 3.2-6.4 3.2-1.6 0-3.2 0-4.8-1.6-3.2-3.2-6.4-8-6.4-12.8-38.4 6.4-78.4 9.6-112 9.6v4.8c0 4.8-3.2 8-8 8s-8-4.8-8-8v-3.2h-12.8c-41.6-3.2-81.6-14.4-115.2-27.2 0 3.2-1.6 6.4 0 8 3.2 3.2 3.2 8 0 11.2-1.6 1.6-3.2 1.6-4.8 1.6-1.6 0-4.8-1.6-6.4-3.2-4.8-4.8-4.8-14.4-3.2-24-27.2-11.2-49.6-20.8-65.6-27.2-8-3.2-17.6-8-27.2-16-8 12.8-16 22.4-25.6 22.4-4.8 0-8-3.2-8-8s3.2-8 8-8c3.2 0 8-6.4 12.8-16-33.6-27.2-68.8-64-78.4-72-1.6 0-1.6-1.6-1.6-1.6L192 624c-1.6 0-3.2 1.6-4.8 1.6-1.6 1.6-3.2 1.6-4.8 4.8-1.6 3.2-1.6 6.4-1.6 11.2 4.8 11.2 11.2 20.8 22.4 32l14.4 14.4c22.4 19.2 49.6 38.4 80 56l9.6 4.8c12.8 6.4 30.4 14.4 52.8 20.8 4.8 1.6 8 3.2 12.8 3.2 89.6 27.2 238.4 44.8 395.2-1.6 6.4-1.6 12.8-3.2 17.6-6.4-8-4.8-11.2-12.8-14.4-22.4zM947.2 636.8c1.6-3.2 3.2-6.4 3.2-9.6V624c0-3.2-1.6-6.4-4.8-8-3.2-1.6-6.4-4.8-11.2-9.6-1.6-1.6-4.8-4.8-6.4-8-1.6-1.6-3.2-6.4-6.4-11.2v1.6c0 1.6-1.6 3.2-3.2 4.8 4.8 8 6.4 17.6 6.4 22.4-1.6 8-12.8 32-41.6 59.2 3.2 6.4 6.4 9.6 11.2 12.8 1.6 1.6 1.6 3.2 3.2 4.8 20.8-20.8 38.4-41.6 49.6-56zM868.8 688c-12.8 11.2-27.2 20.8-43.2 30.4-11.2 6.4-25.6 12.8-40 17.6 1.6 6.4 4.8 11.2 6.4 12.8 3.2 1.6 3.2 4.8 3.2 8l9.6-4.8c14.4-6.4 28.8-14.4 41.6-24 12.8-8 25.6-17.6 36.8-27.2h-1.6c-3.2 0-8-6.4-12.8-12.8zM531.2 262.4c-78.4 6.4-161.6 54.4-204.8 99.2-38.4 41.6-81.6 192-97.6 233.6h3.2c6.4-1.6 11.2-1.6 14.4-1.6 1.6 0 3.2 1.6 3.2 1.6 6.4 1.6 12.8 3.2 17.6 8v-6.4c12.8-68.8 38.4-134.4 68.8-196.8-1.6-3.2-1.6-6.4 0-8 1.6-3.2 4.8-3.2 6.4-3.2 1.6-4.8 4.8-9.6 8-14.4 4.8-8 11.2-14.4 19.2-19.2 14.4-11.2 28.8-20.8 44.8-28.8 14.4-8 28.8-12.8 44.8-19.2 1.6-1.6 3.2-3.2 4.8-6.4 3.2-3.2 8-3.2 11.2 0v1.6l38.4-9.6c11.2-1.6 22.4-3.2 33.6-3.2 1.6-3.2 4.8-6.4 8-4.8 3.2 0 4.8 3.2 6.4 4.8h4.8c17.6 0 35.2 1.6 52.8 3.2 12.8 1.6 27.2 3.2 40 4.8 0-1.6 1.6-1.6 1.6-3.2 3.2-3.2 8-1.6 11.2 1.6 0 0 0 1.6 1.6 1.6 0 0 0 1.6 1.6 1.6 16 3.2 32 6.4 49.6 9.6 17.6 4.8 33.6 9.6 49.6 17.6 4.8 1.6 8 4.8 11.2 8 3.2 3.2 6.4 6.4 9.6 11.2 4.8 8 9.6 14.4 14.4 22.4 3.2 6.4 8 14.4 11.2 20.8 3.2 0 6.4 1.6 8 6.4 0 3.2 0 4.8-1.6 6.4 9.6 20.8 19.2 41.6 27.2 64 11.2 33.6 22.4 67.2 25.6 104v14.4c3.2-3.2 6.4-4.8 9.6-4.8 3.2 0 6.4 1.6 8 3.2 3.2 0 8 0 11.2 1.6 1.6 0 3.2 1.6 4.8 3.2-20.8-54.4-60.8-214.4-96-264-4.8-8-14.4-14.4-24-20.8-57.6-40-193.6-44.8-262.4-40z" fill="#C8AE89" p-id="5993"></path><path d="M537.6 401.6c-1.6 6.4-3.2 14.4-4.8 20.8 81.6 0 134.4-1.6 188.8-9.6-1.6-6.4-3.2-12.8-4.8-17.6-6.4-16-14.4-32-22.4-46.4-8-14.4-17.6-28.8-28.8-43.2V304c-14.4-1.6-27.2-3.2-41.6-4.8-19.2-1.6-38.4-3.2-57.6-3.2-11.2 33.6-20.8 68.8-28.8 105.6zM478.4 310.4s0 1.6 0 0c-25.6 22.4-49.6 48-64 76.8-3.2 6.4-4.8 12.8-8 20.8 28.8 6.4 68.8 12.8 118.4 12.8 1.6-8 3.2-14.4 4.8-22.4 6.4-35.2 14.4-70.4 19.2-105.6-9.6 0-20.8 1.6-30.4 3.2-12.8 1.6-25.6 4.8-38.4 9.6 0 3.2 0 4.8-1.6 4.8zM398.4 406.4c1.6-8 4.8-14.4 8-22.4 11.2-24 27.2-46.4 44.8-65.6-11.2 4.8-20.8 8-30.4 14.4-27.2 14.4-54.4 32-68.8 59.2 6.4 1.6 22.4 8 46.4 14.4zM323.2 660.8l14.4 8c4.8 3.2 11.2 4.8 16 8l14.4-92.8c4.8-33.6 9.6-67.2 16-100.8 3.2-16 6.4-33.6 9.6-49.6 1.6-3.2 1.6-8 1.6-11.2-25.6-6.4-41.6-14.4-49.6-17.6-30.4 62.4-52.8 126.4-65.6 193.6-1.6 4.8 0 9.6 0 16 1.6 1.6 3.2 4.8 3.2 6.4 12.8 12.8 25.6 27.2 40 40zM505.6 624l8-112c1.6-25.6 6.4-49.6 11.2-73.6-49.6 0-89.6-6.4-118.4-12.8 0 3.2-1.6 8-1.6 11.2-3.2 16-4.8 33.6-8 49.6l-14.4 100.8c-4.8 32-8 65.6-11.2 97.6 12.8 6.4 27.2 12.8 40 17.6 1.6 0 4.8 1.6 6.4 1.6h4.8c1.6 0 1.6 1.6 1.6 1.6 22.4 6.4 48 12.8 75.2 17.6 1.6-32 4.8-65.6 6.4-99.2zM728 411.2c28.8-4.8 56-11.2 89.6-20.8l-9.6-19.2c-4.8-8-9.6-14.4-14.4-22.4-4.8-8-11.2-11.2-19.2-16-14.4-8-32-12.8-48-17.6l-43.2-9.6c12.8 28.8 27.2 56 38.4 86.4 3.2 6.4 4.8 12.8 6.4 19.2z" fill="#C8AE89" p-id="5994"></path><path d="M585.6 729.6c65.6-1.6 115.2-17.6 155.2-35.2-1.6-32-1.6-64-4.8-96-1.6-35.2-3.2-68.8-6.4-104l-4.8-51.2c0-4.8-1.6-11.2-1.6-16-56 9.6-112 9.6-193.6 9.6H528c-4.8 24-8 49.6-9.6 73.6-1.6 36.8-3.2 75.2-4.8 112-1.6 33.6-1.6 67.2-3.2 100.8 25.6 6.4 49.6 8 75.2 6.4zM731.2 427.2c0 6.4 1.6 11.2 1.6 16l4.8 51.2 9.6 104c3.2 30.4 6.4 60.8 9.6 89.6 1.6 0 1.6-1.6 3.2-1.6 1.6-1.6 3.2-3.2 6.4-4.8h3.2c6.4-3.2 12.8-6.4 19.2-8 14.4-8 27.2-16 40-25.6 6.4-4.8 12.8-11.2 19.2-16l1.6-1.6c3.2-4.8 6.4-8 9.6-12.8 1.6-6.4 6.4-14.4 11.2-20.8 1.6-9.6 3.2-20.8 3.2-30.4-1.6-33.6-9.6-68.8-20.8-100.8-8-20.8-16-41.6-25.6-62.4-36.8 11.2-67.2 19.2-96 24z" fill="#C8AE89" p-id="5995"></path><path d="M137.6 401.6m-24 0a24 24 0 1 0 48 0 24 24 0 1 0-48 0Z" fill="#83787D" p-id="5996"></path><path d="M524.8 777.6h12.8v-28.8h-4.8c-8-1.6-16-1.6-25.6-3.2-1.6 0-1.6 1.6-3.2 1.6s-4.8-1.6-6.4-3.2c-24-4.8-46.4-11.2-68.8-20.8-3.2-1.6-4.8-1.6-8-3.2-6.4 11.2-9.6 22.4-11.2 30.4 33.6 12.8 73.6 24 115.2 27.2zM668.8 737.6c-9.6 1.6-19.2 4.8-28.8 6.4-28.8 4.8-57.6 6.4-86.4 6.4v28.8c33.6 0 72-3.2 112-9.6-1.6-11.2 0-22.4 3.2-32zM771.2 683.2c6.4-3.2 11.2-6.4 17.6-9.6-6.4 3.2-12.8 6.4-17.6 9.6-1.6 0-1.6 0 0 0zM849.6 632l8-8c0-1.6 1.6-3.2 1.6-4.8-3.2 4.8-6.4 8-9.6 12.8-1.6 0 0 0 0 0zM756.8 691.2c1.6 0 1.6 0 3.2-1.6 0-1.6 0-1.6 1.6-1.6-1.6 0-1.6 1.6-3.2 1.6s-1.6 0-1.6 1.6zM233.6 595.2c6.4-1.6 12.8-1.6 19.2 0-1.6 0-3.2-1.6-3.2-1.6-4.8-1.6-9.6 0-16 1.6zM910.4 595.2c-12.8-3.2-22.4 3.2-28.8 11.2-1.6 4.8-3.2 11.2-6.4 16-1.6 3.2-3.2 4.8-4.8 6.4 0 1.6-1.6 3.2-3.2 4.8l-4.8 4.8c3.2 11.2 11.2 27.2 17.6 38.4 28.8-27.2 40-52.8 41.6-59.2 0-4.8-1.6-14.4-6.4-22.4 0 1.6-1.6 1.6-4.8 0zM395.2 744c1.6-9.6 6.4-20.8 11.2-30.4l-43.2-19.2h-3.2c-3.2 0-6.4-3.2-6.4-6.4-6.4-3.2-12.8-6.4-20.8-11.2l-17.6-9.6c-3.2 9.6-8 22.4-14.4 33.6 9.6 6.4 19.2 12.8 27.2 16 16 6.4 40 16 67.2 27.2zM312 652.8c3.2 1.6 4.8 3.2 4.8 6.4l4.8 3.2c-14.4-12.8-27.2-27.2-40-40 0 0 0 1.6 1.6 1.6 1.6 1.6 0 4.8 0 6.4 1.6 4.8 4.8 9.6 9.6 12.8 3.2 3.2 9.6 6.4 14.4 9.6 1.6-1.6 3.2-1.6 4.8 0zM771.2 742.4c-3.2-11.2-6.4-25.6-9.6-36.8-1.6 0-3.2 1.6-4.8 1.6-1.6 1.6-3.2 3.2-4.8 3.2h-1.6c-1.6 1.6-4.8 1.6-6.4 3.2-17.6 8-36.8 14.4-56 19.2-4.8 12.8-6.4 27.2-4.8 32 30.4-4.8 60.8-12.8 88-22.4zM884.8 582.4v1.6c4.8-3.2 11.2-4.8 17.6-4.8-3.2-1.6-4.8-3.2-8-3.2s-6.4 3.2-9.6 6.4zM414.4 704c-1.6 0-3.2-1.6-4.8-1.6 1.6 0 3.2 0 4.8 1.6zM497.6 723.2c-27.2-4.8-52.8-11.2-75.2-17.6v1.6c3.2 1.6 6.4 3.2 9.6 3.2 20.8 8 41.6 12.8 64 17.6 1.6-1.6 1.6-3.2 1.6-4.8zM742.4 696c-40 17.6-89.6 33.6-155.2 35.2-25.6 0-49.6-1.6-73.6-4.8v4.8c6.4 1.6 14.4 1.6 20.8 3.2H548.8c28.8 1.6 59.2-1.6 88-6.4 12.8-1.6 25.6-4.8 38.4-9.6 1.6 0 3.2-1.6 4.8-1.6 19.2-4.8 38.4-11.2 57.6-19.2 1.6 0 3.2-1.6 4.8-1.6zM825.6 720c17.6-9.6 32-20.8 43.2-30.4-8-11.2-14.4-27.2-17.6-36.8-4.8 3.2-9.6 8-14.4 11.2-19.2 14.4-40 25.6-60.8 35.2 3.2 14.4 6.4 28.8 9.6 40 14.4-6.4 28.8-12.8 40-19.2z" fill="#A88D6C" p-id="5997"></path><path d="M881.6 676.8c-6.4-11.2-12.8-27.2-17.6-38.4l4.8-4.8c1.6-1.6 3.2-1.6 3.2-4.8 1.6-1.6 3.2-4.8 4.8-6.4 3.2-4.8 4.8-9.6 6.4-16 6.4-8 16-14.4 28.8-11.2 1.6 0 4.8 0 6.4-1.6 1.6-1.6 3.2-3.2 3.2-4.8v-1.6c0-1.6 0-3.2-1.6-4.8-1.6-1.6-1.6-1.6-4.8-3.2-4.8-1.6-8-1.6-11.2-1.6-6.4 0-12.8 1.6-17.6 4.8v-1.6-14.4c-3.2-36.8-14.4-70.4-25.6-104-8-20.8-17.6-43.2-27.2-64 1.6-1.6 1.6-4.8 1.6-6.4-1.6-3.2-3.2-4.8-8-6.4-3.2-6.4-6.4-14.4-11.2-20.8-4.8-8-9.6-16-14.4-22.4-3.2-3.2-4.8-6.4-9.6-11.2-3.2-3.2-8-4.8-11.2-8-16-8-33.6-14.4-49.6-17.6-16-4.8-32-8-49.6-9.6 0 0 0-1.6-1.6-1.6 0 0 0-1.6-1.6-1.6-3.2-3.2-8-4.8-11.2-1.6-1.6 0-1.6 1.6-1.6 3.2-12.8-1.6-27.2-3.2-40-4.8-17.6-1.6-35.2-3.2-52.8-3.2h-4.8c-1.6-3.2-3.2-4.8-6.4-4.8s-8 1.6-8 4.8c-11.2 0-22.4 1.6-33.6 3.2-12.8 1.6-25.6 4.8-38.4 9.6v-1.6c-3.2-3.2-8-3.2-11.2 0-1.6 1.6-3.2 3.2-4.8 6.4-14.4 4.8-30.4 11.2-44.8 19.2-16 8-30.4 17.6-44.8 28.8l-19.2 19.2c-3.2 4.8-6.4 9.6-8 14.4-3.2 0-4.8 1.6-6.4 3.2-1.6 3.2-1.6 6.4 0 8-30.4 62.4-56 128-68.8 196.8v6.4c-6.4-4.8-11.2-6.4-17.6-8-6.4-1.6-12.8-1.6-19.2 0h-3.2c-1.6 0-4.8 1.6-6.4 1.6-4.8 1.6-6.4 6.4-4.8 9.6 1.6 4.8 6.4 6.4 9.6 4.8 1.6 0 30.4-9.6 41.6 16l4.8 4.8c3.2 6.4 6.4 12.8 11.2 17.6 3.2 3.2 8 6.4 11.2 8l3.2 1.6c-4.8 11.2-9.6 22.4-14.4 32-4.8 9.6-9.6 16-12.8 16-4.8 0-8 3.2-8 8s3.2 8 8 8c9.6 0 19.2-9.6 25.6-22.4 6.4-11.2 11.2-24 14.4-33.6l17.6 9.6c6.4 3.2 12.8 6.4 20.8 11.2 1.6 3.2 3.2 4.8 6.4 6.4h3.2l43.2 19.2c-4.8 9.6-9.6 20.8-11.2 30.4-1.6 9.6-1.6 19.2 3.2 24 1.6 1.6 3.2 3.2 6.4 3.2 1.6 0 3.2 0 4.8-1.6 3.2-3.2 3.2-8 0-11.2v-8c1.6-8 6.4-19.2 11.2-30.4 3.2 1.6 4.8 1.6 8 3.2 22.4 8 46.4 16 68.8 20.8 1.6 1.6 3.2 3.2 6.4 3.2 1.6 0 3.2 0 3.2-1.6 8 1.6 16 3.2 25.6 3.2h4.8v32c0 4.8 3.2 8 8 8s8-3.2 8-8v-4.8-28.8c28.8 1.6 57.6-1.6 86.4-6.4 9.6-1.6 19.2-3.2 28.8-6.4-3.2 9.6-4.8 20.8-3.2 30.4 1.6 4.8 3.2 9.6 6.4 12.8 1.6 1.6 3.2 1.6 4.8 1.6 1.6 0 4.8-1.6 6.4-3.2 3.2-3.2 1.6-8-1.6-11.2 0 0-1.6-1.6-1.6-3.2-1.6-6.4 0-19.2 4.8-32 19.2-4.8 38.4-11.2 56-19.2 1.6-1.6 4.8-1.6 6.4-3.2h1.6c1.6 0 4.8-1.6 4.8-3.2 1.6 0 3.2-1.6 4.8-1.6 1.6 12.8 4.8 25.6 9.6 36.8 3.2 9.6 8 17.6 11.2 20.8 1.6 1.6 3.2 1.6 4.8 1.6 1.6 0 4.8-1.6 4.8-3.2l1.6-1.6c0-1.6 1.6-1.6 1.6-3.2 0-3.2 0-6.4-3.2-8-1.6-1.6-3.2-6.4-6.4-12.8-3.2-9.6-6.4-25.6-9.6-40 20.8-9.6 41.6-22.4 60.8-35.2 4.8-3.2 9.6-8 14.4-11.2 3.2 9.6 9.6 25.6 17.6 36.8 4.8 6.4 8 11.2 12.8 14.4h1.6c1.6 0 1.6 1.6 3.2 1.6 3.2 0 4.8-1.6 6.4-3.2 1.6-1.6 1.6-4.8 0-6.4 0-1.6-1.6-3.2-3.2-4.8 0 6.4-3.2 1.6-6.4-4.8z m-9.6-108.8c0 9.6 0 20.8-3.2 30.4-4.8 6.4-8 14.4-11.2 20.8 0 1.6-1.6 3.2-1.6 4.8l-6.4 6.4-1.6 1.6c-6.4 4.8-12.8 11.2-19.2 16-12.8 9.6-25.6 17.6-40 25.6-6.4 3.2-11.2 6.4-17.6 9.6H766.4c-3.2 0-4.8 1.6-6.4 4.8 0 0 0 1.6-1.6 1.6s-1.6 0-3.2 1.6v-1.6c-3.2-30.4-6.4-60.8-9.6-89.6L736 496l-4.8-51.2c0-4.8-1.6-11.2-1.6-16 28.8-4.8 59.2-12.8 94.4-22.4 9.6 20.8 17.6 41.6 25.6 62.4 12.8 30.4 20.8 65.6 22.4 99.2z m-145.6-252.8c16 4.8 33.6 9.6 48 17.6 8 3.2 12.8 8 19.2 16 4.8 6.4 9.6 14.4 14.4 22.4l9.6 19.2c-33.6 9.6-62.4 16-89.6 20.8-1.6-6.4-3.2-12.8-6.4-19.2-11.2-28.8-25.6-57.6-38.4-86.4 16 3.2 30.4 6.4 43.2 9.6zM624 297.6c14.4 1.6 27.2 3.2 41.6 4.8v1.6c11.2 12.8 19.2 28.8 28.8 43.2 9.6 14.4 16 30.4 22.4 46.4 3.2 6.4 4.8 11.2 4.8 17.6-54.4 9.6-107.2 9.6-188.8 9.6 1.6-6.4 3.2-14.4 4.8-20.8 8-36.8 16-72 28.8-107.2l57.6 4.8z m-104 0c9.6-1.6 20.8-3.2 30.4-3.2L531.2 400c-1.6 8-3.2 14.4-4.8 22.4-49.6 0-89.6-6.4-118.4-12.8 1.6-8 3.2-14.4 8-20.8 14.4-28.8 38.4-54.4 62.4-76.8 1.6-1.6 1.6-1.6 1.6-3.2 14.4-4.8 27.2-8 40-11.2z m-99.2 33.6c9.6-4.8 20.8-9.6 30.4-14.4-17.6 20.8-33.6 41.6-44.8 65.6-3.2 8-6.4 14.4-8 22.4-24-6.4-40-12.8-46.4-16 14.4-25.6 41.6-43.2 68.8-57.6z m-128 312c-3.2-3.2-6.4-8-9.6-12.8 1.6-1.6 1.6-4.8 0-6.4 0 0 0-1.6-1.6-1.6-1.6-3.2-3.2-4.8-3.2-6.4 0-4.8-1.6-9.6 0-16 12.8-67.2 36.8-132.8 65.6-193.6 6.4 3.2 22.4 11.2 49.6 17.6-1.6 3.2-1.6 8-1.6 11.2-3.2 16-6.4 33.6-9.6 49.6-4.8 33.6-11.2 67.2-16 100.8l-14.4 92.8c-4.8-3.2-11.2-4.8-16-8l-14.4-8-4.8-3.2c0-3.2-3.2-4.8-4.8-6.4h-4.8l-14.4-9.6z m131.2 64c-1.6 0-1.6-1.6 0 0-1.6-1.6-1.6-3.2-3.2-3.2-1.6-1.6-3.2-1.6-4.8 0-1.6 0-3.2-1.6-4.8-1.6-12.8-4.8-27.2-11.2-40-17.6 3.2-32 6.4-65.6 11.2-97.6l14.4-100.8c3.2-16 4.8-33.6 8-49.6 0-3.2 1.6-8 1.6-11.2 28.8 6.4 68.8 12.8 118.4 12.8-4.8 24-8 49.6-11.2 73.6l-8 112c-1.6 33.6-4.8 67.2-8 99.2v4.8c-22.4-4.8-43.2-11.2-64-17.6-3.2-1.6-6.4-1.6-9.6-3.2z m256 11.2c-1.6 0-3.2 0-4.8 1.6l-38.4 9.6c-28.8 4.8-59.2 8-88 6.4h-3.2-11.2c-6.4 0-14.4-1.6-20.8-3.2v-4.8c1.6-33.6 1.6-67.2 3.2-100.8 1.6-36.8 3.2-75.2 4.8-112 1.6-24 4.8-49.6 9.6-73.6h1.6c81.6 0 136-1.6 193.6-9.6 0 4.8 1.6 11.2 1.6 16l4.8 51.2c3.2 35.2 4.8 68.8 6.4 104l4.8 96v1.6c-1.6 0-3.2 1.6-4.8 1.6-20.8 4.8-40 11.2-59.2 16z" fill="#83787D" p-id="5998"></path></svg>